<svg xmlns="http://www.w3.org/2000/svg" xmlns:xlink="http://www.w3.org/1999/xlink" viewBox="0 0 1722 404" class="design-iconfont">
  <defs>
    <filter x="-1%" y="-10.9%" width="102%" height="131%" filterUnits="objectBoundingBox" id="vrc6ba3nkc">
      <feMorphology radius="2.5" operator="dilate" in="SourceAlpha" result="shadowSpreadOuter1"/>
      <feOffset dy="4" in="shadowSpreadOuter1" result="shadowOffsetOuter1"/>
      <feGaussianBlur stdDeviation="3" in="shadowOffsetOuter1" result="shadowBlurOuter1"/>
      <feComposite in="shadowBlurOuter1" in2="SourceAlpha" operator="out" result="shadowBlurOuter1"/>
      <feColorMatrix values="0 0 0 0 0.567180247 0 0 0 0 0.567180247 0 0 0 0 0.567180247 0 0 0 0.5 0" in="shadowBlurOuter1"/>
    </filter>
    <filter x="-37.6%" y="-2500%" width="175.1%" height="5100%" filterUnits="objectBoundingBox" id="wq4cdx299i">
      <feGaussianBlur stdDeviation="50 0" in="SourceGraphic"/>
    </filter>
    <filter x="-21.4%" y="-1750%" width="142.8%" height="3600%" filterUnits="objectBoundingBox" id="9ygdy57udj">
      <feGaussianBlur stdDeviation="35 0" in="SourceGraphic"/>
    </filter>
    <filter x="-36.3%" y="-1312.5%" width="174.2%" height="2725%" filterUnits="objectBoundingBox" id="hnzmeqms6k">
      <feGaussianBlur stdDeviation="21 0" in="SourceGraphic"/>
    </filter>
    <path id="1elyt8j19a" d="M0 0H1722V87H0z"/>
    <path d="M199,-3 L1523,-3 L1523,-1 L1209.79784,6.35515295 C1192.69684,6.75674812 1176.98796,15.872734 1168.15448,30.5211183 L1150.48609,59.8202532 C1141.4369,74.8263503 1125.19231,84 1107.66887,84 L622.75584,84 C603.86528,84 586.587455,73.3535411 578.094294,56.4799086 L566.693252,33.8290976 C558.382608,17.3180795 541.640646,6.73915703 523.160758,6.32175541 L199,-1 L199,-1 L199,-3 Z" id="gbp9p1jaed"/>
    <path d="M697.59375,36.6757812 C697.645833,36.6757812 697.691406,36.6692708 697.730469,36.65625 C698.042969,36.5520833 698.199219,36.3828125 698.199219,36.1484375 L698.199219,36.1484375 L698.199219,35.953125 C698.160156,35.7838542 697.535156,34.4166667 696.324219,31.8515625 C695.373698,29.7161458 694.826823,28.5377604 694.683594,28.3164062 C694.292969,27.8346354 693.902344,27.59375 693.511719,27.59375 L693.511719,27.59375 L689.820312,27.59375 C689.729167,27.59375 689.644531,27.6067708 689.566406,27.6328125 C689.332031,27.75 689.214844,27.9257812 689.214844,28.1601562 L689.214844,28.1601562 L689.214844,28.2382812 C689.214844,28.2773438 689.221354,28.3294271 689.234375,28.3945312 C689.3125,28.6158854 689.891927,29.8854167 690.972656,32.203125 C691.138922,32.5697115 691.293477,32.9099482 691.436321,33.2238351 L691.641804,33.6749029 C692.297468,35.1125878 692.660357,35.8915264 692.730469,36.0117188 C693.121094,36.4544271 693.492188,36.6757812 693.84375,36.6757812 L693.84375,36.6757812 L697.59375,36.6757812 Z M721.910156,42.125 C722.027344,42.1119792 722.164062,42.1054688 722.320312,42.1054688 C722.763021,42.0403646 722.984375,41.9166667 722.984375,41.734375 L722.984375,41.734375 L722.984375,41.65625 C722.984375,41.3958333 722.606771,40.9270833 721.851562,40.25 C721.070312,39.46875 720.503906,38.8502604 720.152344,38.3945312 C719.592448,37.6263021 719.136719,36.9101562 718.785156,36.2460938 L718.785156,36.2460938 L718.785156,36.2070312 L722.066406,36.2070312 C722.11849,36.2070312 722.177083,36.2005208 722.242188,36.1875 C722.736979,36.0182292 722.984375,35.7122396 722.984375,35.2695312 L722.984375,35.2695312 L722.984375,30.6992188 C722.984375,30.5039062 722.958333,30.3541667 722.90625,30.25 C722.697917,29.8203125 722.417969,29.6054688 722.066406,29.6054688 L722.066406,29.6054688 L721.188947,29.6052276 C720.016107,29.6039416 719.429688,29.5975116 719.429688,29.5859375 C718.244792,29.5989583 717.209635,29.6054688 716.324219,29.6054688 L708.474392,29.6051215 C706.552228,29.6036169 704.21441,29.5972222 701.460938,29.5859375 C701.330729,29.5989583 701.076823,29.6054688 700.699219,29.6054688 C700.673177,29.6184896 700.647135,29.625 700.621094,29.625 C700.139323,29.7942708 699.898438,30.1067708 699.898438,30.5625 L699.898438,30.5625 L699.898438,35.3867188 C700.054688,35.9335938 700.360677,36.2070312 700.816406,36.2070312 L700.816406,36.2070312 L703.726562,36.2070312 C703.518229,36.6367188 703.251302,37.0924479 702.925781,37.5742188 C702.58724,38.1471354 701.910156,38.9674479 700.894531,40.0351562 C699.983073,40.8554688 699.527344,41.4088542 699.527344,41.6953125 C699.527344,41.9817708 699.885417,42.125 700.601562,42.125 C702.033854,42.125 703.446615,41.7083333 704.839844,40.875 C706.246094,40.0026042 707.385417,38.8893229 708.257812,37.5351562 C708.908854,36.4283854 709.234375,35.7057292 709.234375,35.3671875 L709.234375,35.3671875 L709.234375,35.2890625 C709.234375,35.2369792 709.221354,35.1653646 709.195312,35.0742188 C709.013021,34.6184896 708.733073,34.390625 708.355469,34.390625 L708.355469,34.390625 L705.445312,34.390625 L705.445007,33.8849487 C705.443583,33.4164022 705.437174,32.8232422 705.425781,32.1054688 L705.425781,32.1054688 L717.4375,32.1054688 L717.4375,34.390625 L714.195312,34.390625 C714.130208,34.390625 714.039062,34.4036458 713.921875,34.4296875 C713.492188,34.6510417 713.277344,34.9505208 713.277344,35.328125 C713.38151,36.0052083 713.84375,36.9427083 714.664062,38.140625 C715.145833,38.8046875 715.809896,39.4817708 716.65625,40.171875 C718.361979,41.4739583 720.113281,42.125 721.910156,42.125 Z M697.535156,46.6953125 C697.58724,46.6953125 697.645833,46.6888021 697.710938,46.6757812 C698.036458,46.5716146 698.199219,46.3763021 698.199219,46.0898438 L698.199219,46.0898438 L698.199219,46.0507812 C698.199219,45.9596354 698.186198,45.8880208 698.160156,45.8359375 C698.095052,45.6796875 696.994792,43.2773438 694.859375,38.6289062 C694.494792,37.9257812 694,37.5742188 693.375,37.5742188 L693.375,37.5742188 L689.996094,37.5742188 C689.47526,37.5742188 689.214844,37.7760417 689.214844,38.1796875 L689.214844,38.1796875 L689.214844,38.1992188 C689.214844,38.3033854 689.227865,38.3815104 689.253906,38.4335938 C689.292969,38.5638021 690.438802,41.0572917 692.691406,45.9140625 C693.042969,46.4348958 693.466146,46.6953125 693.960938,46.6953125 L693.960938,46.6953125 L697.535156,46.6953125 Z M713.21875,62.7890625 C713.388021,62.7890625 713.563802,62.7239583 713.746094,62.59375 C714.019531,62.359375 714.15625,62.1119792 714.15625,61.8515625 L714.15625,61.8515625 L714.15625,47.046875 L722.554688,47.046875 C722.841146,46.9427083 722.984375,46.7799479 722.984375,46.5585938 L722.984375,46.5585938 L722.984375,45.0742188 C722.984375,44.9830729 722.971354,44.9179688 722.945312,44.8789062 C722.854167,44.6445312 722.665365,44.5273438 722.378906,44.5273438 L722.378906,44.5273438 L714.15625,44.5273438 L714.156055,42.7070312 C714.154883,42.0859375 714.148438,41.2539062 714.136719,40.2109375 C714.123698,40.1848958 714.117188,40.1653646 714.117188,40.1523438 C713.934896,39.6184896 713.583333,39.3515625 713.0625,39.3515625 L713.0625,39.3515625 L709.683594,39.3515625 C709.553385,39.3515625 709.436198,39.3645833 709.332031,39.390625 C708.85026,39.5338542 708.609375,39.8854167 708.609375,40.4453125 L708.609375,40.4453125 L708.609918,40.8245443 C708.611726,41.5569661 708.618056,42.7912326 708.628906,44.5273438 L708.628906,44.5273438 L700.09375,44.5273438 C699.690104,44.5273438 699.488281,44.7486979 699.488281,45.1914062 L699.488281,45.1914062 L699.488281,46.5 C699.553385,46.8645833 699.716146,47.046875 699.976562,47.046875 L699.976562,47.046875 L708.589844,47.046875 C708.615885,47.046875 708.628906,47.0598958 708.628906,47.0859375 L708.628906,47.0859375 L708.628906,61.8125 C708.628906,61.8645833 708.635417,61.9296875 708.648438,62.0078125 C708.830729,62.5286458 709.136719,62.7890625 709.566406,62.7890625 L709.566406,62.7890625 L713.21875,62.7890625 Z M693.375,62.7890625 C693.804688,62.7890625 694.182292,62.5286458 694.507812,62.0078125 L694.507812,62.0078125 L697.242188,52.5351562 C697.747287,50.7930773 698.052452,49.7160893 698.157681,49.3041924 L698.184265,49.196228 C698.194234,49.1533 698.199219,49.1269531 698.199219,49.1171875 L698.199219,49.1171875 L698.199219,49.0195312 C698.199219,48.9674479 698.186198,48.8958333 698.160156,48.8046875 C698.042969,48.5052083 697.821615,48.3554688 697.496094,48.3554688 L697.496094,48.3554688 L693.824219,48.3554688 C693.394531,48.3554688 693.023438,48.609375 692.710938,49.1171875 C692.645833,49.2734375 691.571615,52.984375 689.488281,60.25 C689.16276,61.34375 689,61.9492188 689,62.0664062 L689,62.0664062 L689,62.203125 C689.091146,62.59375 689.325521,62.7890625 689.703125,62.7890625 L689.703125,62.7890625 L693.375,62.7890625 Z M700.210938,62.7890625 C700.953125,62.7890625 701.747396,62.6393229 702.59375,62.3398438 C704.052083,61.7408854 705.10026,60.8424479 705.738281,59.6445312 C706.285156,58.7721354 706.558594,57.5351562 706.558594,55.9335938 L706.558594,55.9335938 L706.558594,49.6835938 C706.558594,49.5664062 706.545573,49.4492188 706.519531,49.3320312 C706.33724,48.8372396 706.005208,48.5898438 705.523438,48.5898438 L705.523438,48.5898438 L702.359375,48.5898438 C702.229167,48.5898438 702.098958,48.609375 701.96875,48.6484375 C701.539062,48.8307292 701.324219,49.1627604 701.324219,49.6445312 L701.324219,49.6445312 L701.324219,56.6757812 C701.324219,58.9153646 700.953125,60.4648438 700.210938,61.3242188 C699.729167,61.7799479 699.488281,62.125 699.488281,62.359375 L699.488281,62.359375 L699.507812,62.4375 C699.572917,62.671875 699.807292,62.7890625 700.210938,62.7890625 Z M722.28125,62.7890625 C722.359375,62.7890625 722.43099,62.7825521 722.496094,62.7695312 C722.821615,62.7174479 722.984375,62.5872396 722.984375,62.3789062 L722.984375,62.3789062 L722.984375,62.3203125 C722.984375,62.1380208 722.847656,61.9101562 722.574219,61.6367188 C722.157552,61.2070312 721.890625,60.8359375 721.773438,60.5234375 C721.356771,59.78125 721.148438,58.2513021 721.148438,55.9335938 L721.148438,55.9335938 L721.148438,49.4882812 C721.148438,49.4492188 721.141927,49.3971354 721.128906,49.3320312 C720.959635,48.8372396 720.627604,48.5898438 720.132812,48.5898438 L720.132812,48.5898438 L716.96875,48.5898438 C716.799479,48.5898438 716.66276,48.6158854 716.558594,48.6679688 C716.141927,48.8763021 715.933594,49.1757812 715.933594,49.5664062 L715.933594,49.5664062 L715.933594,56.3632812 C715.933594,58.5117188 716.734375,60.2239583 718.335938,61.5 C719.572917,62.359375 720.888021,62.7890625 722.28125,62.7890625 Z M732.480469,62.6914062 C733.313802,62.5742188 736.835938,61.9947917 743.046875,60.953125 C743.554688,60.9010417 743.808594,60.6992188 743.808594,60.3476562 L743.808594,60.3476562 L743.808594,58.4726562 C743.75651,58.2252604 743.639323,58.1015625 743.457031,58.1015625 L743.457031,58.1015625 L743.417969,58.1015625 C743.326823,58.1015625 742.486979,58.2317708 740.898438,58.4921875 L740.898438,58.4921875 L740.878906,58.4921875 C740.878906,58.4661458 740.885417,58.4010417 740.898438,58.296875 L740.898438,58.296875 L740.898886,56.6829311 C740.901377,52.0646043 740.914249,46.3200335 740.9375,39.4492188 L740.9375,39.4492188 L743.007812,39.4492188 C743.320312,39.3971354 743.476562,39.2539062 743.476562,39.0195312 L743.476562,39.0195312 L743.476562,37.3398438 C743.398438,37.0794271 743.255208,36.9492188 743.046875,36.9492188 L743.046875,36.9492188 L740.9375,36.9492188 C740.947917,34.8971354 740.954167,33.1658854 740.95625,31.7554687 L740.956944,31.0769965 L740.956944,31.0769965 L740.957031,30.7578125 L740.957031,28.4921875 C740.957031,28.3619792 740.911458,28.2252604 740.820312,28.0820312 C740.611979,27.7434896 740.345052,27.5742188 740.019531,27.5742188 L740.019531,27.5742188 L736.40625,27.5742188 C736.210938,27.5742188 736.035156,27.6328125 735.878906,27.75 C735.605469,27.8932292 735.46875,28.2382812 735.46875,28.7851562 L735.46875,28.7851562 L735.468351,35.8969228 C735.466757,36.1520249 735.460379,36.5027902 735.449219,36.9492188 L735.449219,36.9492188 L732.851562,36.9492188 C732.643229,36.9492188 732.50651,37.0859375 732.441406,37.359375 L732.441406,37.359375 L732.441406,39 C732.441406,39.0520833 732.447917,39.0976562 732.460938,39.1367188 C732.565104,39.3450521 732.727865,39.4492188 732.949219,39.4492188 L732.949219,39.4492188 L735.449219,39.4492188 C735.436198,48.5247396 735.423177,55.1783854 735.410156,59.4101562 C733.60026,59.7096354 732.636719,59.8723958 732.519531,59.8984375 C732.246094,60.015625 732.109375,60.1848958 732.109375,60.40625 L732.109375,60.40625 L732.109375,62.3203125 C732.161458,62.5677083 732.278646,62.6914062 732.460938,62.6914062 L732.460938,62.6914062 L732.480469,62.6914062 Z M749.726562,62.7890625 C749.765625,62.7890625 749.817708,62.7825521 749.882812,62.7695312 C750.390625,62.6002604 750.644531,62.2617188 750.644531,61.7539062 L750.644531,61.7539062 L750.644531,57.984375 C750.665478,47.6158288 750.678,39.2185359 750.682098,32.7924962 L750.682929,31.2682833 C750.683003,31.1032461 750.683071,30.9396488 750.683132,30.7774914 L750.683594,28.453125 C750.683594,28.375 750.657552,28.2708333 750.605469,28.140625 C750.423177,27.7630208 750.078125,27.5742188 749.570312,27.5742188 L749.570312,27.5742188 L746.347656,27.5742188 C746.048177,27.5742188 745.813802,27.6263021 745.644531,27.7304688 C745.436198,27.8867188 745.299479,28.1080729 745.234375,28.3945312 C745.221354,30.3997396 745.214844,32.7239583 745.214844,35.3671875 C745.182292,46.0117188 745.163303,53.930013 745.157878,59.1220703 L745.157235,59.7981891 C745.157141,59.908183 745.157054,60.0168306 745.156973,60.1241319 L745.15625,61.9101562 C745.15625,62.0143229 745.188802,62.1315104 745.253906,62.2617188 C745.47526,62.6132812 745.742188,62.7890625 746.054688,62.7890625 L746.054688,62.7890625 L749.726562,62.7890625 Z M765.078125,62.7890625 C765.182292,62.7890625 765.286458,62.7630208 765.390625,62.7109375 C765.794271,62.515625 765.996094,62.203125 765.996094,61.7734375 L765.996094,61.7734375 L765.996094,58.6679688 C766.028942,47.9157197 766.047979,39.1292499 766.053204,32.3085594 L766.053931,31.2197326 C766.054032,31.0411333 766.054123,30.86397 766.054203,30.6882425 L766.054688,28.6484375 C766.067708,28.5833333 766.074219,28.5442708 766.074219,28.53125 C766.074219,28.5052083 766.048177,28.3945312 765.996094,28.1992188 C765.813802,27.7825521 765.46224,27.5742188 764.941406,27.5742188 L764.941406,27.5742188 L761.699219,27.5742188 C761.438802,27.5742188 761.223958,27.6132812 761.054688,27.6914062 C760.742188,27.9518229 760.585938,28.1927083 760.585938,28.4140625 C760.572917,30.8229167 760.566406,33.1796875 760.566406,35.484375 C760.548131,44.6857639 760.536269,51.7711171 760.530818,56.7404346 L760.530049,57.4699619 C760.529929,57.5889048 760.529812,57.7065251 760.5297,57.8228229 L760.529075,58.5047394 C760.528979,58.6157472 760.528887,58.7254323 760.528799,58.833795 L760.528113,59.7733509 C760.528049,59.8737785 760.527989,59.9728835 760.527933,60.070666 L760.527344,61.9296875 C760.527344,62.0208333 760.566406,62.1445312 760.644531,62.3007812 C760.865885,62.6263021 761.126302,62.7890625 761.425781,62.7890625 L761.425781,62.7890625 L765.078125,62.7890625 Z M757.148438,62.1640625 C757.630208,62.1640625 757.955729,61.890625 758.125,61.34375 L758.125,61.34375 L758.125543,61.1902127 C758.127351,60.8845848 758.133681,60.3302951 758.144531,59.5273438 L758.144531,59.5273438 L758.144531,56.1679688 C758.176491,45.5039062 758.195377,37.5245028 758.201188,32.2297585 L758.201885,31.5397017 C758.201989,31.4273438 758.202085,31.3163116 758.202176,31.2066051 L758.202951,29.9537642 C758.202989,29.8546638 758.203022,29.7568892 758.203048,29.6604403 L758.203125,29.0976562 L758.183594,28.9804688 C758.001302,28.4726562 757.695312,28.21875 757.265625,28.21875 L757.265625,28.21875 L753.652344,28.21875 C753.209635,28.21875 752.903646,28.4791667 752.734375,29 C752.721354,29.6901042 752.714844,30.0742188 752.714844,30.1523438 L752.714844,30.1523438 L752.714844,33.375 C752.688802,46.421875 752.669271,55.7317708 752.65625,61.3046875 L752.65625,61.34375 C752.8125,61.890625 753.151042,62.1640625 753.671875,62.1640625 L753.671875,62.1640625 L757.148438,62.1640625 Z M782.621094,36.6757812 C782.72526,36.6757812 782.822917,36.65625 782.914062,36.6171875 C783.174479,36.4739583 783.304688,36.265625 783.304688,35.9921875 C783.304688,35.9791667 783.298177,35.9335938 783.285156,35.8554688 C781.579427,31.0507812 780.674479,28.5377604 780.570312,28.3164062 C780.21875,27.8346354 779.854167,27.59375 779.476562,27.59375 L779.476562,27.59375 L776.078125,27.59375 C775.635417,27.6588542 775.414062,27.8736979 775.414062,28.2382812 L775.414062,28.2382812 L775.414062,28.3945312 C775.518229,28.7721354 776.260417,30.8489583 777.640625,34.625 C777.927083,35.484375 778.122396,35.9791667 778.226562,36.109375 C778.539062,36.4869792 778.871094,36.6757812 779.222656,36.6757812 L779.222656,36.6757812 L782.621094,36.6757812 Z M794.75,42.4960938 C794.854167,42.4960938 794.971354,42.4765625 795.101562,42.4375 C795.505208,42.203125 795.707031,41.9166667 795.707031,41.578125 C795.695747,39.4791667 795.689352,37.7371817 795.687847,36.3521701 L795.6875,32.59375 L797.5625,32.59375 C797.570481,35.4906754 797.576015,37.7346148 797.579105,39.3255683 L797.579999,39.8062687 C797.580405,40.035766 797.580751,40.2489838 797.581035,40.4459222 L797.58195,41.2949524 C797.582004,41.3900681 797.582031,41.4779486 797.582031,41.5585938 C797.582031,41.6497396 797.595052,41.7278646 797.621094,41.7929688 C797.816406,42.2617188 798.122396,42.4960938 798.539062,42.4960938 L798.539062,42.4960938 L801.839844,42.4960938 C801.970052,42.4960938 802.09375,42.4765625 802.210938,42.4375 C802.601562,42.2161458 802.796875,41.9361979 802.796875,41.5976562 L802.796875,41.5976562 L802.796875,32.59375 L808.8125,32.59375 C809.098958,32.4895833 809.242188,32.3333333 809.242188,32.125 L809.242188,32.125 L809.242188,30.6210938 C809.242188,30.3085938 809.059896,30.1328125 808.695312,30.09375 L808.695312,30.09375 L799.378906,30.09375 L799.066406,28.3945312 C798.792969,27.8606771 798.434896,27.59375 797.992188,27.59375 L797.992188,27.59375 L794.320312,27.59375 C794.203125,27.59375 794.092448,27.6197917 793.988281,27.671875 C793.688802,27.8671875 793.539062,28.1015625 793.539062,28.375 C793.539062,28.4401042 793.636719,29.0065104 793.832031,30.0742188 L793.832031,30.0742188 L793.832031,30.09375 L784.085938,30.09375 C783.760417,30.09375 783.578125,30.2760417 783.539062,30.640625 L783.539062,30.640625 L783.539062,32.0664062 C783.539062,32.1315104 783.545573,32.1705729 783.558594,32.1835938 C783.64974,32.4570312 783.80599,32.59375 784.027344,32.59375 L784.027344,32.59375 L790.433594,32.59375 C790.459635,32.59375 790.472656,32.6067708 790.472656,32.6328125 L790.472656,32.6328125 L790.472656,41.4609375 C790.472656,41.5390625 790.479167,41.6171875 790.492188,41.6953125 C790.661458,42.2291667 790.980469,42.4960938 791.449219,42.4960938 L791.449219,42.4960938 L794.75,42.4960938 Z M787.074219,42.3203125 C787.516927,42.3203125 787.88151,42.0664062 788.167969,41.5585938 C789.092448,37.0533854 789.554688,34.7356771 789.554688,34.6054688 L789.554688,34.6054688 L789.554688,34.5859375 C789.554688,34.5208333 789.548177,34.4557292 789.535156,34.390625 C789.391927,34 789.151042,33.8046875 788.8125,33.8046875 L788.8125,33.8046875 L786.410156,33.8046875 C786.201823,33.8046875 785.973958,33.9023438 785.726562,34.0976562 C785.557292,34.2408854 785.420573,34.4101562 785.316406,34.6054688 C784.404948,39.0976562 783.949219,41.3958333 783.949219,41.5 L783.949219,41.5 L783.949219,41.6367188 C784.066406,42.0924479 784.320312,42.3203125 784.710938,42.3203125 L784.710938,42.3203125 L787.074219,42.3203125 Z M808.460938,42.3203125 C808.513021,42.3203125 808.578125,42.3138021 808.65625,42.3007812 C809.046875,42.1575521 809.242188,41.9101562 809.242188,41.5585938 L809.242188,41.5585938 L809.242188,41.5195312 C809.242188,41.4023438 808.884115,39.5924479 808.167969,36.0898438 C807.998698,35.1132812 807.88151,34.5794271 807.816406,34.4882812 C807.503906,34.0325521 807.152344,33.8046875 806.761719,33.8046875 L806.761719,33.8046875 L804.300781,33.8046875 C803.858073,33.9348958 803.636719,34.1757812 803.636719,34.5273438 L803.636719,34.5273438 L803.636719,34.625 C803.636719,34.7421875 804.092448,37.0338542 805.003906,41.5 C805.264323,42.046875 805.648438,42.3203125 806.15625,42.3203125 L806.15625,42.3203125 L808.460938,42.3203125 Z M782.601562,46.65625 C782.692708,46.65625 782.757812,46.6432292 782.796875,46.6171875 C783.135417,46.5 783.304688,46.2851562 783.304688,45.9726562 C783.304688,45.8554688 783.259115,45.6861979 783.167969,45.4648438 C781.904948,41.9361979 781.052083,39.5729167 780.609375,38.375 C780.257812,37.828125 779.886719,37.5546875 779.496094,37.5546875 L779.496094,37.5546875 L776.058594,37.5546875 C775.980469,37.5546875 775.915365,37.5677083 775.863281,37.59375 C775.563802,37.7239583 775.414062,37.9257812 775.414062,38.1992188 L775.414062,38.1992188 L775.414062,38.2773438 C775.414062,38.4205729 775.492188,38.6809896 775.648438,39.0585938 C776.221354,40.6731771 776.660807,41.9036458 776.966797,42.75 L777.134375,43.2117188 C777.336458,43.7658854 777.453125,44.0742188 777.484375,44.1367188 C777.848958,45.2565104 778.089844,45.8945312 778.207031,46.0507812 C778.519531,46.4544271 778.864583,46.65625 779.242188,46.65625 L779.242188,46.65625 L782.601562,46.65625 Z M802.757812,62.7890625 C803.526042,62.7890625 804.339844,62.6393229 805.199219,62.3398438 C806.00651,62.0403646 806.722656,61.6106771 807.347656,61.0507812 C808.610677,59.8268229 809.242188,58.296875 809.242188,56.4609375 L809.242188,56.4609375 L809.242188,55.1914062 C809.242188,55.1263021 809.235677,55.0546875 809.222656,54.9765625 C809.027344,54.5208333 808.740885,54.2929688 808.363281,54.2929688 L808.363281,54.2929688 L807.384556,54.2923605 C806.448498,54.2904682 805.980469,54.2841605 805.980469,54.2734375 C804.886719,54.2864583 803.897135,54.2929688 803.011719,54.2929688 L790.472656,54.2929688 C790.461806,53.21875 790.455476,52.3841508 790.453668,51.789171 L790.453125,51.4023438 L807.425781,51.4023438 C807.490885,51.4023438 807.575521,51.3893229 807.679688,51.3632812 C808.122396,51.1419271 808.34375,50.8489583 808.34375,50.484375 L808.34375,50.484375 L808.34375,44.4882812 C808.34375,44.3320312 808.298177,44.1757812 808.207031,44.0195312 C807.959635,43.6940104 807.71875,43.53125 807.484375,43.53125 C807.320466,43.53125 807.166198,43.5311599 807.021572,43.5309797 L806.61662,43.5301687 C805.801894,43.5278258 805.394531,43.5216759 805.394531,43.5117188 C803.688802,43.5247396 802.184896,43.53125 800.882812,43.53125 L785.570312,43.53125 C785.283854,43.6223958 785.140625,43.7786458 785.140625,44 L785.140625,44 L785.140625,45.6015625 C785.231771,45.9010417 785.414062,46.0507812 785.6875,46.0507812 L785.6875,46.0507812 L802.796875,46.0507812 L802.796875,48.7265625 L802.816406,48.9023438 L785.882812,48.9023438 C785.84375,48.9023438 785.778646,48.9088542 785.6875,48.921875 C785.179688,49.1302083 784.925781,49.4492188 784.925781,49.8789062 L784.925781,49.8789062 L784.925781,51.5756076 C784.926678,52.5972512 784.93316,54.0499132 784.945312,55.9335938 C784.945312,55.9466146 784.958333,55.9986979 784.984375,56.0898438 C785.166667,56.5585938 785.498698,56.7929688 785.980469,56.7929688 L785.980469,56.7929688 L804.027344,56.7929688 C804.027344,57.5221354 803.929688,58.3554688 803.734375,59.2929688 C803.473958,60.2695312 803.122396,60.9596354 802.679688,61.3632812 C802.132812,61.8190104 801.859375,62.1510417 801.859375,62.359375 L801.859375,62.359375 L801.859375,62.4179688 L801.878906,62.5351562 C802.009115,62.7044271 802.263021,62.7890625 802.640625,62.7890625 L802.640625,62.7890625 L802.757812,62.7890625 Z M779.320312,62.7890625 C779.736979,62.7890625 780.095052,62.5351562 780.394531,62.0273438 C780.446615,61.8971354 780.726562,60.6861979 781.234375,58.3945312 C782.5625,52.5481771 783.259115,49.4557292 783.324219,49.1171875 C783.324219,49.1041667 783.317708,49.0455729 783.304688,48.9414062 C783.174479,48.5507812 782.927083,48.3554688 782.5625,48.3554688 L782.5625,48.3554688 L779.203125,48.3554688 C778.760417,48.3554688 778.395833,48.6289062 778.109375,49.1757812 C777.52832,51.7392578 777.099792,53.6369995 776.823792,54.8690063 L776.749084,55.2028931 C776.737325,55.2555216 776.725911,55.3066406 776.714844,55.35625 L776.624573,55.7619751 C776.61558,55.8025269 776.606934,55.841569 776.598633,55.8791016 L776.552979,56.0861816 C776.483805,56.401123 776.449219,56.5651042 776.449219,56.578125 C775.69401,59.8072917 775.283854,61.6171875 775.21875,62.0078125 L775.21875,62.0078125 L775.21875,62.046875 C775.21875,62.1119792 775.22526,62.1705729 775.238281,62.2226562 C775.355469,62.6002604 775.589844,62.7890625 775.941406,62.7890625 L775.941406,62.7890625 L779.320312,62.7890625 Z M848.445312,62.75 C848.614583,62.75 848.783854,62.6979167 848.953125,62.59375 C849.161458,62.4244792 849.298177,62.2096354 849.363281,61.9492188 C849.374132,60.4409722 849.380462,59.1723452 849.38227,58.1433377 L849.382812,54.3710938 L851.84375,54.3710938 C852.130208,54.2669271 852.273438,54.1106771 852.273438,53.9023438 L852.273438,53.9023438 L852.273438,52.3984375 C852.273438,52.0859375 852.084635,51.9101562 851.707031,51.8710938 L851.707031,51.8710938 L849.382812,51.8710938 C849.382812,51.4414062 849.389323,50.4778646 849.402344,48.9804688 C849.402344,42.6263021 849.415365,35.7773438 849.441406,28.4335938 C849.428385,28.4205729 849.421875,28.375 849.421875,28.296875 C849.252604,27.8020833 848.959635,27.5546875 848.542969,27.5546875 L848.542969,27.5546875 L845.125,27.5546875 C845.072917,27.5546875 844.994792,27.5677083 844.890625,27.59375 C844.473958,27.7890625 844.265625,28.0820312 844.265625,28.4726562 C844.245971,37.2187254 844.233733,43.8065532 844.228913,48.2361397 L844.228245,48.8843909 C844.228143,48.9897349 844.228046,49.0937301 844.227953,49.1963763 L844.227063,50.3633842 C844.227007,50.4552392 844.226957,50.5457454 844.22691,50.6349026 L844.226562,51.8710938 L834.441406,51.8710938 C834.076823,51.9101562 833.894531,52.0859375 833.894531,52.3984375 L833.894531,52.3984375 L833.894531,53.9414062 C833.985677,54.2278646 834.154948,54.3710938 834.402344,54.3710938 L834.402344,54.3710938 L844.1875,54.3710938 L844.226562,54.390625 L844.207031,54.6054688 L844.207031,61.8125 C844.207031,61.8776042 844.213542,61.9427083 844.226562,62.0078125 C844.382812,62.5026042 844.682292,62.75 845.125,62.75 L845.125,62.75 L848.445312,62.75 Z M842.351562,38.2578125 C842.716146,38.2578125 842.924479,38.0494792 842.976562,37.6328125 L842.976562,37.6328125 L842.976562,37.59375 C842.976562,37.5286458 842.970052,37.4765625 842.957031,37.4375 C842.865885,37.1510417 841.863281,34.5794271 839.949219,29.7226562 C839.623698,29.1367188 839.19401,28.84375 838.660156,28.84375 L838.660156,28.84375 L835.691406,28.84375 C835.60026,28.84375 835.548177,28.8502604 835.535156,28.8632812 C835.196615,28.9414062 835.027344,29.1302083 835.027344,29.4296875 L835.027344,29.4296875 L835.027344,29.5078125 C835.027344,29.5729167 835.033854,29.6184896 835.046875,29.6445312 C835.132497,29.9380919 835.867325,31.8173245 837.251359,35.2822293 L837.527344,35.9726562 C837.865885,36.9622396 838.119792,37.5481771 838.289062,37.7304688 C838.627604,38.0820312 838.972656,38.2578125 839.324219,38.2578125 L839.324219,38.2578125 L842.351562,38.2578125 Z M827.117188,62.75 C827.234375,62.75 827.351562,62.7239583 827.46875,62.671875 C827.872396,62.4635417 828.074219,62.1901042 828.074219,61.8515625 L828.074219,61.8515625 L828.074219,38.3359375 L832.78125,38.3359375 C833.080729,38.2447917 833.230469,38.0559896 833.230469,37.7695312 L833.230469,37.7695312 L833.230469,36.4023438 C833.230469,36.3242188 833.223958,36.2786458 833.210938,36.265625 C833.132812,35.9661458 832.950521,35.8164062 832.664062,35.8164062 L832.664062,35.8164062 L828.074219,35.8164062 L828.074219,31.5976562 L831.785156,31.4023438 C832.110677,31.2981771 832.273438,31.0898438 832.273438,30.7773438 L832.273438,30.7773438 L832.273438,29.3320312 C832.182292,29.0325521 832.039062,28.8828125 831.84375,28.8828125 C831.544271,28.8828125 827.403646,29.1106771 819.421875,29.5664062 C819.122396,29.6705729 818.972656,29.8398438 818.972656,30.0742188 L818.972656,30.0742188 L818.972656,31.6171875 C818.972656,31.8515625 819.128906,32.0078125 819.441406,32.0859375 L819.441406,32.0859375 L823.484375,31.8515625 L823.484375,35.8164062 L818.796875,35.8164062 C818.484375,35.8815104 818.328125,36.0963542 818.328125,36.4609375 L818.328125,36.4609375 L818.328125,37.8671875 C818.432292,38.1796875 818.595052,38.3359375 818.816406,38.3359375 L818.816406,38.3359375 L823.484375,38.3359375 L823.484862,52.0491473 C823.486593,54.7655601 823.492941,58.0590735 823.503906,61.9296875 C823.516927,61.9427083 823.523438,61.96875 823.523438,62.0078125 C823.692708,62.5026042 824.018229,62.75 824.5,62.75 L824.5,62.75 L827.117188,62.75 Z M840.964844,49.8007812 C841.029948,49.8007812 841.134115,49.7942708 841.277344,49.78125 C841.628906,49.6510417 841.804688,49.4231771 841.804688,49.0976562 L841.804688,49.0976562 L841.804688,49.0390625 C841.765625,48.7916667 841.042969,46.3958333 839.636719,41.8515625 C839.415365,41.0572917 839.259115,40.5820312 839.167969,40.4257812 C838.855469,39.9700521 838.471354,39.7421875 838.015625,39.7421875 L838.015625,39.7421875 L835.027344,39.7421875 C834.584635,39.7942708 834.363281,40.0091146 834.363281,40.3867188 L834.363281,40.3867188 L834.363281,40.5039062 C834.441406,40.8294271 835.235677,43.4726562 836.746094,48.4335938 C836.954427,49.3450521 837.481771,49.8007812 838.328125,49.8007812 L838.328125,49.8007812 L840.964844,49.8007812 Z M818.777344,62.7890625 C819.011719,62.7890625 819.330729,62.6783854 819.734375,62.4570312 C819.747396,62.4570312 819.923177,62.3333333 820.261719,62.0859375 C820.678385,61.65625 820.977865,61.265625 821.160156,60.9140625 C821.798177,59.6380208 822.117188,58.2708333 822.117188,56.8125 L822.117188,56.8125 L822.117188,40.7382812 C822.117188,40.6601562 822.097656,40.5559896 822.058594,40.4257812 C821.99349,40.2825521 821.785156,40.2109375 821.433594,40.2109375 L821.433594,40.2109375 L819.8125,40.2109375 C819.682292,40.2109375 819.597656,40.2174479 819.558594,40.2304688 C819.272135,40.2304688 819.128906,40.4257812 819.128906,40.8164062 L819.128906,40.8164062 L819.128906,56.2265625 C819.128906,56.5911458 819.135417,57.0924479 819.148438,57.7304688 C819.148438,59.1367188 819.018229,60.3085938 818.757812,61.2460938 C818.497396,61.7799479 818.367188,62.1575521 818.367188,62.3789062 L818.367188,62.3789062 L818.367188,62.4570312 C818.367188,62.6393229 818.477865,62.75 818.699219,62.7890625 L818.699219,62.7890625 L818.777344,62.7890625 Z M832.820312,62.75 C833.09375,62.7239583 833.230469,62.59375 833.230469,62.359375 C833.230469,62.1901042 833.171875,61.9752604 833.054688,61.7148438 C832.625,60.9466146 832.410156,59.5273438 832.410156,57.4570312 L832.410156,57.4570312 L832.410156,40.71875 C832.410156,40.6015625 832.390625,40.4908854 832.351562,40.3867188 C832.260417,40.2695312 832.052083,40.2109375 831.726562,40.2109375 L831.726562,40.2109375 L830.085938,40.2109375 C829.851562,40.2109375 829.695312,40.2434896 829.617188,40.3085938 C829.5,40.3606771 829.441406,40.5429688 829.441406,40.8554688 L829.441406,40.8554688 L829.441406,56.6171875 C829.441406,59.0911458 829.994792,60.8880208 831.101562,62.0078125 C831.700521,62.5026042 832.253906,62.75 832.761719,62.75 L832.761719,62.75 L832.820312,62.75 Z M863.097656,62.7890625 C864.39974,62.7890625 865.675781,62.4049479 866.925781,61.6367188 C868.813802,60.3606771 869.757812,58.5572917 869.757812,56.2265625 L869.757812,56.2265625 L869.757812,51.1289062 L872.472656,50.7773438 C872.85026,50.6992188 873.039062,50.484375 873.039062,50.1328125 L873.039062,50.1328125 L873.039062,48.3945312 C872.960938,48.0950521 872.824219,47.9453125 872.628906,47.9453125 L872.628906,47.9453125 L869.777344,48.296875 L869.757812,48.296875 L869.757812,37.046875 L872.257812,37.046875 C872.570312,36.9296875 872.726562,36.7604167 872.726562,36.5390625 L872.726562,36.5390625 L872.726562,35.0546875 C872.726562,34.9635417 872.707031,34.8854167 872.667969,34.8203125 C872.576823,34.625 872.401042,34.5273438 872.140625,34.5273438 L872.140625,34.5273438 L869.757812,34.5273438 L869.757812,28.4726562 C869.757812,28.3945312 869.744792,28.3098958 869.71875,28.21875 C869.549479,27.8020833 869.25651,27.59375 868.839844,27.59375 L868.839844,27.59375 L865.167969,27.59375 C865.011719,27.59375 864.901042,27.6067708 864.835938,27.6328125 C864.432292,27.7890625 864.230469,28.0559896 864.230469,28.4335938 L864.230469,28.4335938 L864.230469,34.5273438 L862.003906,34.5273438 C861.91276,34.5273438 861.867188,34.5338542 861.867188,34.546875 C861.645833,34.546875 861.502604,34.6901042 861.4375,34.9765625 L861.4375,34.9765625 L861.4375,36.5976562 C861.4375,36.6236979 861.450521,36.6757812 861.476562,36.7539062 C861.567708,36.9492188 861.75651,37.046875 862.042969,37.046875 L862.042969,37.046875 L864.230469,37.046875 L864.230469,49.0390625 L861.945312,49.3320312 C861.606771,49.4231771 861.4375,49.5859375 861.4375,49.8203125 L861.4375,49.8203125 L861.4375,51.7734375 C861.515625,52.0208333 861.632812,52.1445312 861.789062,52.1445312 C861.90625,52.1445312 862.713542,52.0533854 864.210938,51.8710938 L864.210938,51.8710938 L864.230469,51.8710938 L864.230469,56.1679688 C864.230469,57.3919271 864.165365,58.3554688 864.035156,59.0585938 C863.826823,60.1393229 863.514323,60.8945312 863.097656,61.3242188 C862.628906,61.7669271 862.394531,62.1184896 862.394531,62.3789062 C862.394531,62.4309896 862.407552,62.4765625 862.433594,62.515625 C862.53776,62.6979167 862.759115,62.7890625 863.097656,62.7890625 Z M875.011719,62.7890625 C875.49349,62.7890625 876.092448,62.7239583 876.808594,62.59375 C878.488281,62.28125 879.998698,61.7994792 881.339844,61.1484375 C882.407552,60.640625 883.488281,60.015625 884.582031,59.2734375 C884.634115,59.3125 884.855469,59.46875 885.246094,59.7421875 C886.561198,60.5885417 887.889323,61.265625 889.230469,61.7734375 C891.209635,62.4505208 892.856771,62.7890625 894.171875,62.7890625 L894.171875,62.7890625 L894.289062,62.7890625 C894.458333,62.7890625 894.608073,62.7760417 894.738281,62.75 C895.19401,62.671875 895.421875,62.5221354 895.421875,62.3007812 L895.421875,62.3007812 L895.421875,62.2617188 C895.421875,61.9231771 894.914062,61.4934896 893.898438,60.9726562 C892.765625,60.3867188 891.815104,59.8203125 891.046875,59.2734375 C890.200521,58.7395833 889.09375,57.8476562 887.726562,56.5976562 C888.507812,55.7773438 889.080729,55.1263021 889.445312,54.6445312 C890.1875,53.7070312 890.695312,53.0039062 890.96875,52.5351562 C891.502604,51.7148438 892.010417,50.8033854 892.492188,49.8007812 C892.895833,48.9153646 893.253906,48.0039062 893.566406,47.0664062 C894.165365,45.0221354 894.464844,43.2838542 894.464844,41.8515625 C894.451823,41.6822917 894.432292,41.578125 894.40625,41.5390625 C894.25,41.0963542 893.9375,40.875 893.46875,40.875 L893.46875,40.875 L887.824219,40.875 L887.824219,35.4257812 L894.933594,35.4257812 C895.141927,35.4257812 895.304688,35.2760417 895.421875,34.9765625 L895.421875,34.9765625 L895.421875,33.375 C895.330729,33.0755208 895.174479,32.9257812 894.953125,32.9257812 L894.953125,32.9257812 L887.824219,32.9257812 L887.824219,28.609375 C887.824219,28.5182292 887.811198,28.4140625 887.785156,28.296875 C887.576823,27.828125 887.283854,27.59375 886.90625,27.59375 L886.90625,27.59375 L883.214844,27.59375 C883.14974,27.59375 883.058594,27.6067708 882.941406,27.6328125 C882.498698,27.828125 882.277344,28.1145833 882.277344,28.4921875 L882.277344,28.4921875 L882.277344,32.9257812 L875.03125,32.9257812 C874.809896,32.9257812 874.660156,33.0690104 874.582031,33.3554688 L874.582031,33.3554688 L874.582031,34.9960938 C874.582031,35.2174479 874.731771,35.3606771 875.03125,35.4257812 L875.03125,35.4257812 L882.277344,35.4257812 L882.277344,40.875 L875.675781,40.875 C875.532552,40.875 875.434896,40.8815104 875.382812,40.8945312 C874.914062,41.0638021 874.679688,41.3632812 874.679688,41.7929688 L874.679688,41.7929688 L874.679688,41.8515625 C874.679688,43.3619792 874.985677,45.1328125 875.597656,47.1640625 C876.014323,48.375 876.4375,49.4036458 876.867188,50.25 C877.296875,51.1614583 877.947917,52.2421875 878.820312,53.4921875 C879.354167,54.2864583 880.213542,55.3216146 881.398438,56.5976562 C880.473958,57.4570312 879.673177,58.1341146 878.996094,58.6289062 C878.46224,59.0195312 877.785156,59.4817708 876.964844,60.015625 C876.27474,60.40625 875.929688,60.6080729 875.929688,60.6210938 C874.445312,61.3111979 873.703125,61.8710938 873.703125,62.3007812 C873.703125,62.3268229 873.716146,62.3723958 873.742188,62.4375 C873.885417,62.671875 874.269531,62.7890625 874.894531,62.7890625 L874.894531,62.7890625 L875.011719,62.7890625 Z M884.582031,53.0429688 C884.56901,53.0429688 884.529948,52.9973958 884.464844,52.90625 C883.735677,51.9166667 883.136719,50.9921875 882.667969,50.1328125 C882.003906,49 881.385417,47.5546875 880.8125,45.796875 C880.591146,45.0286458 880.408854,44.2148438 880.265625,43.3554688 L880.265625,43.3554688 L888.859375,43.3554688 C888.846354,43.4726562 888.839844,43.5442708 888.839844,43.5703125 C888.61849,44.703125 888.390625,45.6080729 888.15625,46.2851562 C887.713542,47.6132812 887.21875,48.7721354 886.671875,49.7617188 C886.203125,50.6601562 885.50651,51.7539062 884.582031,53.0429688 Z M938.101562,62.7890625 C938.388021,62.6848958 938.53125,62.5026042 938.53125,62.2421875 L938.53125,62.2421875 L938.53125,60.8164062 C938.53125,60.5039062 938.348958,60.3216146 937.984375,60.2695312 L937.984375,60.2695312 L924.9375,60.2695312 L924.9375,48.7851562 L936.65625,48.7851562 C936.981771,48.7851562 937.177083,48.6223958 937.242188,48.296875 L937.242188,48.296875 L937.242188,46.734375 L937.222656,46.6367188 C937.144531,46.3893229 936.929688,46.265625 936.578125,46.265625 L936.578125,46.265625 L924.9375,46.265625 L924.9375,37.0664062 L937.007812,37.0664062 C937.307292,37.0664062 937.496094,36.9036458 937.574219,36.578125 L937.574219,36.578125 L937.574219,35.09375 C937.574219,35.0416667 937.567708,34.9960938 937.554688,34.9570312 C937.450521,34.6966146 937.294271,34.5664062 937.085938,34.5664062 L937.085938,34.5664062 L924.9375,34.5664062 L924.9375,28.7265625 C924.9375,28.453125 924.904948,28.2578125 924.839844,28.140625 C924.605469,27.7760417 924.325521,27.59375 924,27.59375 L924,27.59375 L920.347656,27.59375 C920.230469,27.59375 920.10026,27.6263021 919.957031,27.6914062 C919.592448,27.9388021 919.410156,28.2122396 919.410156,28.5117188 L919.410156,28.5117188 L919.410156,34.5664062 L912.886719,34.5664062 C912.938802,34.3971354 913.407552,33.0494792 914.292969,30.5234375 C914.553385,29.8203125 914.683594,29.3971354 914.683594,29.2539062 L914.683594,29.2539062 L914.683594,29.1171875 C914.566406,28.7395833 914.351562,28.5507812 914.039062,28.5507812 L914.039062,28.5507812 L910.347656,28.5507812 C910.282552,28.5507812 910.24349,28.5572917 910.230469,28.5703125 C909.77474,28.7005208 909.416667,28.9804688 909.15625,29.4101562 C908.101562,32.4049479 906.721354,36.3372396 905.015625,41.2070312 C904.768229,41.8710938 904.644531,42.2747396 904.644531,42.4179688 L904.644531,42.4179688 L904.644531,42.4570312 C904.644531,42.5481771 904.651042,42.6197917 904.664062,42.671875 C904.794271,42.9713542 904.996094,43.1210938 905.269531,43.1210938 L905.269531,43.1210938 L908.980469,43.1210938 C909.384115,43.1210938 909.755208,42.8867188 910.09375,42.4179688 C910.197917,42.2226562 910.829427,40.4388021 911.988281,37.0664062 L911.988281,37.0664062 L919.410156,37.0664062 L919.410156,46.265625 L906.480469,46.265625 C906.402344,46.265625 906.33724,46.2721354 906.285156,46.2851562 C906.050781,46.2851562 905.894531,46.4348958 905.816406,46.734375 L905.816406,46.734375 L905.816406,48.296875 C905.816406,48.3489583 905.829427,48.4010417 905.855469,48.453125 C905.959635,48.6744792 906.148438,48.7851562 906.421875,48.7851562 L906.421875,48.7851562 L919.410156,48.7851562 L919.410156,60.2695312 L905.09375,60.2695312 C905.041667,60.2695312 904.989583,60.2760417 904.9375,60.2890625 C904.677083,60.3932292 904.546875,60.5494792 904.546875,60.7578125 L904.546875,60.7578125 L904.546875,62.359375 C904.651042,62.6458333 904.813802,62.7890625 905.035156,62.7890625 L905.035156,62.7890625 L938.101562,62.7890625 Z M980.625,47.828125 C980.807292,47.828125 980.996094,47.8020833 981.191406,47.75 C981.503906,47.6458333 981.660156,47.4765625 981.660156,47.2421875 C981.660156,46.8645833 981.269531,46.3567708 980.488281,45.71875 C979.824219,45.25 979.199219,44.7617188 978.613281,44.2539062 C978.170573,43.9283854 977.363281,43.1601562 976.191406,41.9492188 C975.123698,40.7643229 974.283854,39.7356771 973.671875,38.8632812 C972.578125,37.3138021 971.705729,35.8945312 971.054688,34.6054688 L971.054688,34.6054688 L981.269531,34.6054688 C981.529948,34.5013021 981.660156,34.3255208 981.660156,34.078125 L981.660156,34.078125 L981.660156,32.6328125 C981.660156,32.5416667 981.640625,32.4570312 981.601562,32.3789062 C981.523438,32.1966146 981.328125,32.1054688 981.015625,32.1054688 L981.015625,32.1054688 L965.878906,32.1054688 C965.878906,32.0533854 965.917969,31.9427083 965.996094,31.7734375 C966.660156,29.9244792 966.992188,28.84375 966.992188,28.53125 L966.992188,28.53125 L966.972656,28.3554688 C966.803385,27.8476562 966.497396,27.59375 966.054688,27.59375 L966.054688,27.59375 L961.875,27.59375 C961.484375,27.59375 961.191406,27.8020833 960.996094,28.21875 C960.527344,29.6380208 960.039062,30.9335938 959.53125,32.1054688 L959.53125,32.1054688 L948.261719,32.1054688 C948.144531,32.1054688 948.085938,32.1119792 948.085938,32.125 C947.864583,32.125 947.721354,32.2682292 947.65625,32.5546875 L947.65625,32.5546875 L947.65625,34.15625 C947.65625,34.1953125 947.66276,34.2278646 947.675781,34.2539062 C947.753906,34.4882812 947.936198,34.6054688 948.222656,34.6054688 L948.222656,34.6054688 L958.320312,34.6054688 C958.085938,35.0351562 957.910156,35.3541667 957.792969,35.5625 C957.03776,36.9296875 956.191406,38.21875 955.253906,39.4296875 C954.798177,40.1197917 953.860677,41.2135417 952.441406,42.7109375 C951.165365,43.9348958 950.14974,44.8138021 949.394531,45.3476562 C948.27474,46.1419271 947.714844,46.7734375 947.714844,47.2421875 C947.727865,47.3463542 947.747396,47.4179688 947.773438,47.4570312 C947.916667,47.7044271 948.235677,47.828125 948.730469,47.828125 C949.746094,47.828125 951.204427,47.4244792 953.105469,46.6171875 C954.082031,46.1744792 955.065104,45.6145833 956.054688,44.9375 C956.653646,44.5208333 957.233073,44.0716146 957.792969,43.5898438 C957.986749,43.4550398 958.368611,43.1048966 958.938554,42.5394139 L959.268085,42.2096129 C959.500207,41.9755082 959.7572,41.7129289 960.039062,41.421875 C961.158854,40.1588542 962.050781,39.0260417 962.714844,38.0234375 C963.522135,36.8125 964.173177,35.7057292 964.667969,34.703125 L964.667969,34.703125 L964.6875,34.703125 C965.234375,35.7708333 965.852865,36.8255208 966.542969,37.8671875 C967.089844,38.6875 967.792969,39.6184896 968.652344,40.6601562 C969.277344,41.4283854 970.188802,42.3528646 971.386719,43.4335938 C972.233073,44.1497396 973.040365,44.7617188 973.808594,45.2695312 C974.915365,45.9726562 975.983073,46.5325521 977.011719,46.9492188 C978.613281,47.5351562 979.817708,47.828125 980.625,47.828125 Z M967.8125,47.9648438 C967.903646,47.9648438 967.988281,47.9583333 968.066406,47.9453125 C968.404948,47.8671875 968.574219,47.671875 968.574219,47.359375 L968.574219,47.359375 L968.574219,47.2421875 C968.574219,47.1995739 968.359214,46.6378487 967.929203,45.5570119 L967.777903,45.1775066 C967.432833,44.3135881 966.975616,43.1788984 966.40625,41.7734375 C965.976562,41.2526042 965.553385,40.9921875 965.136719,40.9921875 L965.136719,40.9921875 L961.386719,40.9921875 C961.035156,41.0703125 960.859375,41.2591146 960.859375,41.5585938 C960.859375,41.6236979 960.865885,41.6888021 960.878906,41.7539062 C960.891113,41.7966309 961.052094,42.2069969 961.361847,42.9850044 L961.721191,43.8855591 C962.04834,44.7040405 962.470703,45.7578125 962.988281,47.046875 C963.326823,47.6588542 963.821615,47.9648438 964.472656,47.9648438 L964.472656,47.9648438 L967.8125,47.9648438 Z M948.378906,62.7890625 C949.108073,62.7890625 949.928385,62.6328125 950.839844,62.3203125 C951.647135,62.0338542 952.441406,61.5325521 953.222656,60.8164062 C954.420573,59.5403646 955.019531,58.1015625 955.019531,56.5 L955.019531,56.5 L955.019531,50.0742188 C955.019531,50.0091146 955.013021,49.9440104 955,49.8789062 C954.84375,49.3841146 954.518229,49.1367188 954.023438,49.1367188 L954.023438,49.1367188 L950.507812,49.1367188 C950.429688,49.1367188 950.364583,49.1432292 950.3125,49.15625 C949.765625,49.2734375 949.492188,49.6054688 949.492188,50.1523438 L949.492188,50.1523438 L949.492188,56.5585938 C949.492188,57.6393229 949.420573,58.5377604 949.277344,59.2539062 C949.121094,60.1393229 948.782552,60.8684896 948.261719,61.4414062 C947.858073,61.8190104 947.65625,62.125 947.65625,62.359375 C947.65625,62.3854167 947.66276,62.4114583 947.675781,62.4375 C947.740885,62.671875 947.97526,62.7890625 948.378906,62.7890625 Z M974.707031,62.7890625 C974.785156,62.7890625 974.85026,62.7760417 974.902344,62.75 C975.123698,62.6588542 975.234375,62.4505208 975.234375,62.125 L975.234375,62.125 L975.234375,60.8164062 C975.234375,60.7252604 975.227865,60.6601562 975.214844,60.6210938 C975.214844,60.3867188 975.058594,60.2304688 974.746094,60.1523438 L974.746094,60.1523438 L962.753906,60.1523438 C962.66276,60.1523438 962.610677,60.1458333 962.597656,60.1328125 C962.298177,60.0677083 962.148438,59.8723958 962.148438,59.546875 L962.148438,59.546875 L962.148438,50.0351562 C962.148438,49.9700521 962.141927,49.8984375 962.128906,49.8203125 C961.946615,49.3645833 961.621094,49.1367188 961.152344,49.1367188 L961.152344,49.1367188 L957.65625,49.1367188 C957.565104,49.1367188 957.49349,49.1432292 957.441406,49.15625 C956.894531,49.2734375 956.621094,49.6054688 956.621094,50.1523438 L956.621094,50.1523438 L956.621094,59.1367188 C956.621094,60.0091146 956.855469,60.7513021 957.324219,61.3632812 C958.092448,62.3138021 959.016927,62.7890625 960.097656,62.7890625 L960.097656,62.7890625 L974.707031,62.7890625 Z M971.09375,58.8632812 C971.197917,58.8632812 971.308594,58.8372396 971.425781,58.7851562 C971.751302,58.6028646 971.914062,58.3619792 971.914062,58.0625 L971.914062,58.0625 L971.914062,58.0429688 C971.914062,57.9127604 971.72526,56.6432292 971.347656,54.234375 C970.957031,51.4348958 970.742188,50.0026042 970.703125,49.9375 C970.494792,49.4036458 970.136719,49.1367188 969.628906,49.1367188 L969.628906,49.1367188 L966.152344,49.1367188 C965.865885,49.1367188 965.644531,49.2148438 965.488281,49.3710938 C965.30599,49.5533854 965.214844,49.7486979 965.214844,49.9570312 C965.214844,50.1132812 965.46224,51.7929688 965.957031,54.9960938 C966.24349,57.1184896 966.39974,58.1796875 966.425781,58.1796875 C966.660156,58.6354167 966.985677,58.8632812 967.402344,58.8632812 L967.402344,58.8632812 L971.09375,58.8632812 Z M981.015625,62.7890625 C981.445312,62.75 981.660156,62.6132812 981.660156,62.3789062 L981.660156,62.3789062 L981.660156,62.359375 C981.660156,62.1640625 981.542969,61.9492188 981.308594,61.7148438 C980.826823,61.2070312 980.540365,60.8098958 980.449219,60.5234375 C980.032552,59.78125 979.824219,58.2513021 979.824219,55.9335938 L979.824219,55.9335938 L979.824083,53.25727 C979.823088,52.4416594 979.816623,51.3415799 979.804688,49.9570312 L979.804688,49.9570312 L979.746094,49.7617188 C979.576823,49.3450521 979.251302,49.1367188 978.769531,49.1367188 L978.769531,49.1367188 L975.292969,49.1367188 C975.097656,49.1367188 974.947917,49.1627604 974.84375,49.2148438 C974.466146,49.4361979 974.277344,49.7161458 974.277344,50.0546875 L974.277344,50.0546875 L974.277344,56.2265625 C974.277344,58.609375 975.279948,60.4518229 977.285156,61.7539062 C978.522135,62.4440104 979.739583,62.7890625 980.9375,62.7890625 L980.9375,62.7890625 L981.015625,62.7890625 Z M1022.03516,62.7890625 C1022.17839,62.7890625 1022.34115,62.7369792 1022.52344,62.6328125 C1022.8099,62.3984375 1022.95312,62.1445312 1022.95312,61.8710938 C1022.94164,59.0103401 1022.93522,56.6970021 1022.93386,54.9310797 L1022.93359,30.484375 C1022.93359,30.3932292 1022.92057,30.2760417 1022.89453,30.1328125 C1022.67318,29.6640625 1022.35417,29.4296875 1021.9375,29.4296875 L1021.9375,29.4296875 L991.78125,29.4296875 C991.585938,29.4296875 991.403646,29.4947917 991.234375,29.625 C990.921875,29.8723958 990.765625,30.1197917 990.765625,30.3671875 C990.776042,33.7734375 990.782292,36.6546875 990.784375,39.0109375 L990.784961,39.8699219 C990.785091,40.1480469 990.785156,40.4179688 990.785156,40.6796875 L990.785156,61.7929688 C990.785156,61.8450521 990.791667,61.9166667 990.804688,62.0078125 C990.986979,62.5286458 991.299479,62.7890625 991.742188,62.7890625 L991.742188,62.7890625 L1022.03516,62.7890625 Z M1017.38672,60.2890625 L996.761719,60.2890625 C996.514323,60.2890625 996.364583,60.1197917 996.3125,59.78125 L996.3125,59.78125 L996.312259,33.9708237 C996.310973,33.4564204 996.304543,32.7825521 996.292969,31.9492188 L996.292969,31.9492188 L996.332031,31.9296875 L1016.83984,31.9296875 C1016.91797,31.9296875 1017.0026,31.9427083 1017.09375,31.96875 C1017.28906,32.0729167 1017.38672,32.2356771 1017.38672,32.4570312 L1017.38672,32.4570312 L1017.38672,60.2890625 Z M1014.82812,37.9257812 C1015.16667,37.9257812 1015.36198,37.7239583 1015.41406,37.3203125 L1015.41406,37.3203125 L1015.41406,35.9921875 C1015.41406,35.8880208 1015.40104,35.8098958 1015.375,35.7578125 C1015.29688,35.5104167 1015.08203,35.3867188 1014.73047,35.3867188 L1014.73047,35.3867188 L998.988281,35.3867188 C998.519531,35.3867188 998.285156,35.5885417 998.285156,35.9921875 L998.285156,35.9921875 L998.285156,37.3007812 C998.285156,37.3789062 998.298177,37.4635417 998.324219,37.5546875 C998.428385,37.8020833 998.623698,37.9257812 998.910156,37.9257812 L998.910156,37.9257812 L1014.82812,37.9257812 Z M997.777344,58.9609375 C998.207031,58.9609375 998.80599,58.8177083 999.574219,58.53125 C1000.05599,58.3359375 1000.55729,58.0559896 1001.07812,57.6914062 C1001.41667,57.4570312 1001.89193,56.9947917 1002.50391,56.3046875 C1003.05078,55.5755208 1003.48698,54.8528646 1003.8125,54.1367188 C1005.01042,51.4023438 1005.60938,47.9973958 1005.60938,43.921875 L1005.60938,43.921875 L1005.60938,43.9023438 L1007.52344,43.9023438 C1007.5146,47.5249256 1007.50876,50.5179734 1007.50592,52.8814872 L1007.50513,53.6069336 C1007.50501,53.7243536 1007.5049,53.8400298 1007.5048,53.9539621 L1007.50401,55.2374442 C1007.50394,55.437407 1007.50391,55.6303943 1007.50391,55.8164062 C1007.50391,56.2200521 1007.64062,56.6822917 1007.91406,57.203125 C1008.59115,58.296875 1009.54818,58.84375 1010.78516,58.84375 L1010.78516,58.84375 L1016.44922,58.84375 C1016.5013,58.84375 1016.5599,58.8372396 1016.625,58.8242188 C1016.85938,58.7460938 1016.97656,58.5898438 1016.97656,58.3554688 L1016.97656,58.3554688 L1016.97656,57.7304688 C1016.97656,57.5091146 1016.98307,57.203125 1016.99609,56.8125 C1016.93099,56.5 1016.78776,56.34375 1016.56641,56.34375 L1016.56641,56.34375 L1013.79297,56.34375 C1013.50651,56.34375 1013.28516,56.2851562 1013.12891,56.1679688 C1012.84245,55.9205729 1012.69922,55.6796875 1012.69922,55.4453125 C1012.72092,50.3888889 1012.73358,46.8741681 1012.7372,44.9011502 L1012.7378,44.5271026 C1012.73788,44.4681874 1012.73795,44.4109851 1012.73801,44.3554959 L1012.73828,43.9023438 L1016.05859,43.9023438 C1016.11068,43.9023438 1016.17578,43.8958333 1016.25391,43.8828125 C1016.55339,43.7786458 1016.70312,43.5768229 1016.70312,43.2773438 L1016.70312,43.2773438 L1016.70312,42.0078125 C1016.70312,41.9427083 1016.69661,41.8841146 1016.68359,41.8320312 C1016.61849,41.5195312 1016.40365,41.3632812 1016.03906,41.3632812 L1016.03906,41.3632812 L997.621094,41.3632812 C997.217448,41.3632812 997.015625,41.5846354 997.015625,42.0273438 L997.015625,42.0273438 L997.015625,43.375 C997.080729,43.7265625 997.289062,43.9023438 997.640625,43.9023438 L997.640625,43.9023438 L1000.21875,43.9023438 C1000.21875,49.3971354 999.483073,53.6028646 998.011719,56.5195312 C997.425781,57.4830729 997.132812,58.1341146 997.132812,58.4726562 L997.132812,58.4726562 L997.132812,58.5117188 C997.132812,58.8111979 997.308594,58.9609375 997.660156,58.9609375 L997.660156,58.9609375 L997.777344,58.9609375 Z" id="u1qq1q2njg"/>
    <linearGradient x1="50%" y1="0%" x2="50%" y2="100%" id="0pgn4r5wqe">
      <stop stop-color="#FEF4D8" stop-opacity=".6" offset="0%"/>
      <stop stop-color="#F3EDD3" stop-opacity=".5" offset="100%"/>
    </linearGradient>
    <linearGradient x1="50%" y1="0%" x2="50%" y2="100%" id="9s9u0g52wh">
      <stop stop-color="#FFF" offset="0%"/>
      <stop stop-color="#C7C7C7" offset="99.9651715%"/>
    </linearGradient>
    <radialGradient cx="50%" cy="0%" fx="50%" fy="0%" r="100%" gradientTransform="matrix(0 1 -.52703 0 .5 -.5)" id="zjgfj0w0hf">
      <stop stop-color="#FFF" offset="0%"/>
      <stop stop-opacity="0" offset="100%"/>
    </radialGradient>
  </defs>
  <g fill="none" fill-rule="evenodd">
    <g transform="translate(0 115)">
      <mask id="q100sepe4b" fill="#fff">
        <use xlink:href="#1elyt8j19a"/>
      </mask>
      <g mask="url(#q100sepe4b)">
        <use fill="#000" filter="url(#vrc6ba3nkc)" xlink:href="#gbp9p1jaed"/>
        <path stroke="url(#0pgn4r5wqe)" stroke-width="2.5" d="M1524.25,-4.25 L1524.25,0.220989977 L1209.82718,7.60480842 C1193.15371,7.9963637 1177.83755,16.88445 1169.22491,31.1666246 L1169.22491,31.1666246 L1151.55652,60.4657596 C1142.2811,75.847009 1125.63039,85.25 1107.66887,85.25 L1107.66887,85.25 L622.75584,85.25 C613.074428,85.25 603.806279,82.5218449 595.870297,77.6317556 C587.934315,72.7416664 581.3305,65.689643 576.977755,57.0419063 L576.977755,57.0419063 L565.576713,34.3910953 C561.525274,26.341974 555.418702,19.738801 548.072752,15.0970375 C540.726803,10.455274 532.141477,7.77491997 523.132531,7.57143668 L523.132531,7.57143668 L197.75,0.222085307 L197.75,-4.25 L1524.25,-4.25 Z" fill-opacity=".6" fill="#050C1B"/>
      </g>
      <path d="M1122.27967,112.958333 C1122.27967,58.305155 1005.13953,14 860.639836,14 C716.140145,14 599,58.305155 599,112.958333" stroke="url(#zjgfj0w0hf)" stroke-width="2" opacity=".40000001" mask="url(#q100sepe4b)"/>
      <g style="mix-blend-mode:normal" fill-rule="nonzero" mask="url(#q100sepe4b)">
        <use fill="#FFF" xlink:href="#u1qq1q2njg"/>
        <use fill="url(#9s9u0g52wh)" xlink:href="#u1qq1q2njg"/>
      </g>
    </g>
    <path d="M46.2871947,1.71578738 L139.105288,0 L139.105288,0 L231.902321,1.71306533 C232.454511,1.72325896 232.893887,2.17916151 232.883693,2.73135218 C232.873808,3.26682736 232.443807,3.69945202 231.908402,3.71259387 L138.718426,6 L138.718426,6 L46.2809685,3.71531126 C45.7288523,3.70166513 45.2923362,3.2430242 45.3059823,2.69090806 C45.3192135,2.15558079 45.7517954,1.72568449 46.2871947,1.71578738 Z" fill-opacity=".67015919" fill="#336C8D" filter="url(#wq4cdx299i)" transform="matrix(1 0 0 -1 727 204)"/>
    <path d="M46.2871947,1.71578738 L139.105288,0 L139.105288,0 L231.902321,1.71306533 C232.454511,1.72325896 232.893887,2.17916151 232.883693,2.73135218 C232.873808,3.26682736 232.443807,3.69945202 231.908402,3.71259387 L138.718426,6 L138.718426,6 L46.2809685,3.71531126 C45.7288523,3.70166513 45.2923362,3.2430242 45.3059823,2.69090806 C45.3192135,2.15558079 45.7517954,1.72568449 46.2871947,1.71578738 Z" fill-opacity=".67" fill="#7472A4" filter="url(#9ygdy57udj)" transform="matrix(1 0 0 -1 727 204)"/>
    <path d="M105.492887,1.20509273 L139.285669,0 L139.285669,0 L169.924182,1.19564826 C170.476047,1.21718442 170.905963,1.68201766 170.884427,2.23388235 C170.864256,2.7507664 170.453219,3.16695562 169.936626,3.19356382 L138.748006,4.8 L138.748006,4.8 L105.480585,3.20330767 C104.928935,3.17683086 104.503198,2.70816671 104.529675,2.15651698 C104.5546,1.63720425 104.973307,1.22362161 105.492887,1.20509273 Z" fill="#FFF" filter="url(#hnzmeqms6k)" transform="translate(727 198)"/>
    <path fill-opacity=".84766137" fill="#FFF" d="M124.8 2.75160999L136.086326 2.4 146.4 2.75160999 135.981132 6z" transform="translate(727 198)"/>
  </g>
</svg>
