<?xml version="1.0" standalone="no"?><!DOCTYPE svg PUBLIC "-//W3C//DTD SVG 1.1//EN" "http://www.w3.org/Graphics/SVG/1.1/DTD/svg11.dtd"><svg t="1645638890523" class="icon" viewBox="0 0 1024 1024" version="1.1" xmlns="http://www.w3.org/2000/svg" p-id="4551" xmlns:xlink="http://www.w3.org/1999/xlink" width="200" height="200"><defs><style type="text/css"></style></defs><path d="M614.4 273.066667c0-94.208-76.458667-170.666667-170.666667-170.666667S273.066667 178.858667 273.066667 273.066667h68.266666c0-56.32 46.08-102.4 102.4-102.4s102.4 46.08 102.4 102.4-46.08 102.4-102.4 102.4H34.133333v68.266666h409.6c94.208 0 170.666667-76.458667 170.666667-170.666666z m341.333333 443.733333H34.133333v68.266667h204.8v102.4h68.266667v-102.4h136.533333v102.4h68.266667v-102.4h136.533333v102.4h68.266667v-102.4h156.672l-78.165333 78.165333 48.128 48.128 136.533333-136.533333c9.898667-9.898667 12.629333-24.576 7.509333-37.205334-5.461333-12.629333-18.090667-20.821333-31.744-20.821333z m34.133334-273.066667c0-94.208-76.458667-170.666667-170.666667-170.666666s-170.666667 76.458667-170.666667 170.666666h68.266667c0-56.32 46.08-102.4 102.4-102.4s102.4 46.08 102.4 102.4-46.08 102.4-102.4 102.4H34.133333v68.266667h785.066667c94.208 0 170.666667-76.458667 170.666667-170.666667z" p-id="4552" fill="#ffffff"></path></svg>